<svg width="86" height="86" viewBox="0 0 86 86" xmlns="http://www.w3.org/2000/svg"><title>Combined Shape</title><path d="M42.75 0C19.14 0 0 19.14 0 42.75S19.14 85.5 42.75 85.5 85.5 66.36 85.5 42.75c0-11.338-4.504-22.212-12.52-30.23C64.96 4.505 54.087 0 42.75 0zM31.88 42.815V31.68c.003-1.327.707-2.553 1.85-3.225 1.146-.672 2.56-.69 3.72-.045l20 11.14c1.18.663 1.913 1.91 1.914 3.265 0 1.354-.733 2.602-1.914 3.265l-20 11.14c-1.16.644-2.574.627-3.72-.045-1.143-.672-1.847-1.898-1.85-3.225V42.815z" fill="#000" fill-rule="evenodd"/></svg>