<svg id="Layer_1" data-name="Layer 1" xmlns="http://www.w3.org/2000/svg" viewBox="0 0 35.2 27.39"><defs><style>.cls-1{fill:#338aca;}.cls-2{fill:#69b6e5;}</style></defs><path class="cls-1" d="M35.16 10.48s-.81 1.62-4.88 4.19c-1.73 1.09-5.33 2.25-10 2.7-2.5.24-7.1 0-9.08 0s-2.89.42-4.67 2.42L0 27.23h4c1.72 0 12.45.62 17.21-.69 15.46-4.23 13.95-16.06 13.95-16.06z"/><path class="cls-2" d="M34.74 5.78C35.49 1.25 32.92 0 32.92 0s.08 3.69-6.68 4.48C20.22 5.17 0 4.65 0 4.65l6.5 7.45c1.76 2 2.69 2.25 4.67 2.39a83.63 83.63 0 0 0 9.31-.14c3.24-.25 7.85-1.3 11-3.72a8.26 8.26 0 0 0 3.26-4.85z"/></svg>