<svg id="Layer_1" data-name="Layer 1" xmlns="http://www.w3.org/2000/svg" viewBox="0 0 35.2 27.39"><defs><style>.cls{fill:#000;}</style></defs><path class="cls" d="M35.16,10.48s-0.81,1.62-4.88,4.19c-1.73,1.09-5.33,2.25-10,2.7-2.5.24-7.1,0-9.08,0s-2.89.42-4.67,2.42L0,27.23H4c1.72,0,12.45.62,17.21-.69C36.67,22.31,35.16,10.48,35.16,10.48Z"/><path class="cls" d="M34.74,5.78C35.49,1.25,32.92,0,32.92,0S33,3.69,26.24,4.48C20.22,5.17,0,4.65,0,4.65L6.5,12.1c1.76,2,2.69,2.25,4.67,2.39a83.63,83.63,0,0,0,9.31-.14c3.24-.25,7.85-1.3,11-3.72A8.26,8.26,0,0,0,34.74,5.78Z"/></svg>